# xmcd
#
# Track frame offsets:
#	150
#	14425
#	32566
#
# Disc length: 697 seconds
#
# Revision: 0
# Processed by: cddbd v1.4PL0 Copyright (c) Steve Scherf et al.
# Submitted via: dBpowerAMP V4.0
#
DISCID=1902b703
DTITLE=Absylom RIsing - Studio Demo
DYEAR=1900
DGENRE=Classic Rock
TTITLE0=Love The One Your With - Crosby, Stills, and Nash Cover
TTITLE1=From Far Away - Original
TTITLE2=Bouncing Round the Room - Phish Cover
EXTD=Studio cut of a Memphis Band
EXTT0=
EXTT1=
EXTT2=
PLAYORDER=
